<svg width="166" height="166" viewBox="0 0 166 166" fill="none" xmlns="http://www.w3.org/2000/svg">
<g filter="url(#filter0_d_9_2)">
<rect x="28.9685" y="4.63202" width="130" height="130" rx="30" transform="rotate(9 28.9685 4.63202)" fill="#000067"/>
</g>
<path d="M44.7012 39.9336C45.9473 39.9336 47.2689 39.9525 48.666 39.9902C50.0632 39.9902 51.498 39.9902 52.9707 39.9902C54.4434 39.9902 55.916 40.0091 57.3887 40.0469C58.8613 40.0469 60.2773 40.0469 61.6367 40.0469C61.7878 40.0469 62.373 40.0469 63.3926 40.0469C64.4121 40.0091 65.5827 39.9902 66.9043 39.9902C68.2259 39.9902 69.5475 39.9902 70.8691 39.9902C72.2285 39.9525 73.3236 39.9336 74.1543 39.9336V45.541H71.4355C69.6986 45.541 68.3581 45.6165 67.4141 45.7676C66.5078 45.8809 65.8281 46.1074 65.375 46.4473C64.9596 46.7493 64.7142 47.1647 64.6387 47.6934C64.5632 48.222 64.5254 48.8828 64.5254 49.6758V71.9355H102.418V49.2227C102.418 48.3164 102.305 47.6178 102.078 47.127C101.889 46.5983 101.512 46.2207 100.945 45.9941C100.417 45.7676 99.6992 45.6354 98.793 45.5977C97.9245 45.5599 96.8105 45.541 95.4512 45.541H92.7324V39.9336C95.4889 40.0091 98.2077 40.0469 100.889 40.0469C103.57 40.0469 106.118 40.0469 108.535 40.0469C108.686 40.0469 109.309 40.0469 110.404 40.0469C111.499 40.0091 112.764 39.9902 114.199 39.9902C115.672 39.9902 117.145 39.9902 118.617 39.9902C120.128 39.9525 121.336 39.9336 122.242 39.9336V45.541H119.58C117.881 45.541 116.559 45.6165 115.615 45.7676C114.709 45.8809 114.029 46.0885 113.576 46.3906C113.161 46.6927 112.915 47.0703 112.84 47.5234C112.764 47.9766 112.727 48.543 112.727 49.2227V102.635C112.727 102.937 112.708 103.239 112.67 103.541C112.67 103.805 112.67 104.07 112.67 104.334C112.67 104.863 112.727 105.316 112.84 105.693C112.991 106.071 113.293 106.392 113.746 106.656C114.237 106.921 114.936 107.109 115.842 107.223C116.748 107.336 117.994 107.393 119.58 107.393H122.242V113C120.996 113 119.769 113 118.561 113C117.352 112.962 116.106 112.943 114.822 112.943C113.576 112.943 112.255 112.943 110.857 112.943C109.46 112.906 107.912 112.887 106.213 112.887C104.778 112.887 103.456 112.906 102.248 112.943C101.04 112.943 99.888 112.943 98.793 112.943C97.7357 112.943 96.7161 112.962 95.7344 113C94.7526 113 93.752 113 92.7324 113V107.393H95.4512C97.1504 107.393 98.472 107.298 99.416 107.109C100.36 106.883 101.059 106.581 101.512 106.203C101.965 105.788 102.229 105.316 102.305 104.787C102.38 104.221 102.418 103.579 102.418 102.861V77.9961H64.5254V103.201C64.5254 104.296 64.6198 105.127 64.8086 105.693C64.9974 106.26 65.3372 106.675 65.8281 106.939C66.3568 107.204 67.0742 107.355 67.9805 107.393C68.8867 107.393 70.0384 107.393 71.4355 107.393H74.1543V113C73.097 113 72.0775 113 71.0957 113C70.1139 112.962 69.0944 112.943 68.0371 112.943C67.0176 112.943 65.9036 112.943 64.6953 112.943C63.487 112.906 62.1465 112.887 60.6738 112.887C58.9746 112.887 57.4076 112.906 55.9727 112.943C54.5755 112.943 53.2539 112.943 52.0078 112.943C50.7617 112.943 49.5345 112.962 48.3262 113C47.1556 113 45.9473 113 44.7012 113V107.393H47.3633C49.0625 107.393 50.3841 107.279 51.3281 107.053C52.2721 106.826 52.9518 106.524 53.3672 106.146C53.7826 105.731 54.028 105.259 54.1035 104.73C54.179 104.202 54.2168 103.617 54.2168 102.975V49.0527C54.2168 48.4108 54.179 47.8633 54.1035 47.4102C54.028 46.957 53.7637 46.5983 53.3105 46.334C52.8952 46.0319 52.2155 45.8242 51.2715 45.7109C50.3652 45.5977 49.0625 45.541 47.3633 45.541H44.7012V39.9336Z" fill="white"/>
<defs>
<filter id="filter0_d_9_2" x="0.951355" y="0.951324" width="164.097" height="164.097" filterUnits="userSpaceOnUse" color-interpolation-filters="sRGB">
<feFlood flood-opacity="0" result="BackgroundImageFix"/>
<feColorMatrix in="SourceAlpha" type="matrix" values="0 0 0 0 0 0 0 0 0 0 0 0 0 0 0 0 0 0 127 0" result="hardAlpha"/>
<feOffset dy="4"/>
<feGaussianBlur stdDeviation="6"/>
<feComposite in2="hardAlpha" operator="out"/>
<feColorMatrix type="matrix" values="0 0 0 0 0 0 0 0 0 0 0 0 0 0 0 0 0 0 0.5 0"/>
<feBlend mode="normal" in2="BackgroundImageFix" result="effect1_dropShadow_9_2"/>
<feBlend mode="normal" in="SourceGraphic" in2="effect1_dropShadow_9_2" result="shape"/>
</filter>
</defs>
</svg>
